<?xml version="1.0" encoding="utf-8"?>
<svg x="249.141pt" y="249.141pt" width="501.719pt" height="501.719pt" viewBox="249.141 249.141 501.719 501.719" xmlns="http://www.w3.org/2000/svg" xmlns:xlink="http://www.w3.org/1999/xlink">
  <defs>
    <title>Box</title>
    <g id="1">
      <defs>
        <path id="2" d="M750.859,692.604 C750.859,724.778,724.778,750.859,692.604,750.859 C692.604,750.859,307.396,750.859,307.396,750.859 C275.222,750.859,249.141,724.778,249.141,692.604 C249.141,692.604,249.141,307.396,249.141,307.396 C249.141,275.222,275.222,249.141,307.396,249.141 C307.396,249.141,692.604,249.141,692.604,249.141 C724.778,249.141,750.859,275.222,750.859,307.396 C750.859,307.396,750.859,692.604,750.859,692.604 z"/>
      </defs>
      <use xlink:href="#2" style="fill:#3ea9f5;fill-opacity:1;fill-rule:nonzero;opacity:1;stroke:none;"/>
    </g>
  </defs>
  <use xlink:href="#1"/>
  <defs>
    <title>CompoundGroup</title>
    <g id="3">
      <defs>
        <path id="4" d="M698.797,528.071 C668.365,580.78,637.933,633.489,607.502,686.199 C535.834,686.199,464.166,686.199,392.498,686.199 C356.664,624.132,320.83,562.066,284.996,500 C320.83,437.934,356.664,375.868,392.498,313.801 C464.166,313.801,535.834,313.802,607.502,313.802 C637.933,366.511,668.365,419.22,698.797,471.929 C670.186,471.929,641.575,471.929,612.965,471.929 C596.838,443.998,580.712,416.066,564.586,388.134 C521.529,388.134,478.471,388.134,435.414,388.134 C413.886,425.423,392.357,462.711,370.829,500 C392.357,537.289,413.886,574.577,435.414,611.866 C478.471,611.866,521.529,611.866,564.586,611.866 C580.712,583.934,596.838,556.002,612.965,528.071 C641.575,528.071,670.186,528.071,698.797,528.071 z"/>
      </defs>
      <use xlink:href="#4" style="fill:#ffffff;fill-opacity:1;fill-rule:evenodd;opacity:1;stroke:none;"/>
    </g>
  </defs>
  <use xlink:href="#3"/>
</svg>
